# Alias OBJ Model File
# Exported from SketchUp, (c) 2000-2012 Trimble Navigation Limited
# File units = inches

mtllib ENote Building.mtl

g Mesh1 Model

usemtl M_13_Kensinger_Bowne_Gowanus_DSC_0144
v 81.25 0 -273.43
vt 1 0
vn 1 0 -0
v 81.25 31.9375 -237.805
vt -8.88178e-16 1
v 81.25 0 -237.805
vt -8.88178e-16 0
f 1/1/1 2/2/1 3/3/1

v 81.25 31.9375 -273.43
vt 1 1
f 2/2/1 1/1/1 4/4/1

usemtl FrontColor
vt -81.25 0
vn 0 0 -1
v 0 31.9375 -273.43
vt 0 31.9375
vt -81.25 31.9375
f 1/5/2 5/6/2 4/7/2

v 0 0 -273.43
vt 0 0
f 5/6/2 1/5/2 6/8/2

vt -81.25 273.43
vn 0 -1 -0
v 0 0 -237.805
vt 0 237.805
vt 0 273.43
f 1/9/3 7/10/3 6/11/3

vt -81.25 237.805
f 7/10/3 1/9/3 3/12/3

usemtl M_13_Kensinger_Bowne_Gowanus_DSC_0144_1_
vn 0 0 1
f 2/4/4 7/8/4 3/1/4

v 0 31.9375 -237.805
vt 0 1
f 7/8/4 2/4/4 8/13/4

usemtl FrontColor
vt 81.25 237.805
vn 0 1 -0
f 2/14/5 5/11/5 8/10/5

vt 81.25 273.43
f 5/11/5 2/14/5 4/15/5

usemtl M_13_Kensinger_Bowne_Gowanus_DSC_0144_3_
v 0 99.4263 -455.75
vt 0.521789 0.321218
vt 0.599957 0.321218
f 9/4/1 8/16/1 5/17/1

v 0 99.4263 -0
f 10/13/1 8/16/1 9/4/1

vt 0.521789 0
f 10/13/1 7/18/1 8/16/1

v 0 0 -0
f 7/18/1 10/13/1 11/8/1

usemtl M_13_Kensinger_Bowne_Gowanus_DSC_0144_2_
vt 1 0.650224
v -212.427 0 -0
f 10/19/4 12/8/4 11/1/4

v -9.66601 99.4263 -0
vt 0.954497 0.650224
f 12/8/4 10/19/4 13/20/4

usemtl FrontColor
vt -1.46175e-13 0
vn 1.47019e-15 1 -0
v -9.66601 99.4263 -455.75
vt -9.66601 455.75
vt -9.66601 0
f 10/21/6 14/22/6 13/23/6

vt -1.46175e-13 455.75
f 14/22/6 10/21/6 9/24/6

v 0 0 -455.75
vt 9.66601 99.4263
vt 0 99.4263
f 15/8/2 14/25/2 9/26/2

v -212.427 105.263 -455.75
vt 212.427 105.263
f 15/8/2 16/27/2 14/25/2

v -212.427 0 -455.75
vt 212.427 0
f 16/27/2 15/8/2 17/28/2

vt 0 455.75
vt 212.427 455.75
f 15/29/3 12/28/3 17/30/3

f 12/28/3 15/29/3 11/8/3

f 11/8/3 15/29/3 6/11/3

usemtl M_13_Kensinger_Bowne_Gowanus_DSC_0144_3_
vt 0.599957 0
f 15/1/1 5/17/1 6/31/1

f 9/4/1 5/17/1 15/1/1

usemtl FrontColor
f 11/8/3 6/11/3 7/10/3

vn -1 0 -0
vt -455.75 105.263
vt -455.75 0
f 12/8/7 16/32/7 17/33/7

v -212.427 105.263 -0
vt 0 105.263
f 16/32/7 12/8/7 18/34/7

usemtl M_13_Kensinger_Bowne_Gowanus_DSC_0144_2_
vt 0 0.688392
f 12/8/4 13/20/4 18/35/4

v -115.969 152.911 -0
vt 0.454074 1
f 18/35/4 13/20/4 19/36/4

usemtl FrontColor
vt 0 53.3218
vn 0.44945 0.893306 -0
v -115.969 152.911 -455.75
vt 455.75 172.322
vt 0 172.322
f 13/37/8 20/38/8 19/39/8

vt 455.75 53.3218
f 20/38/8 13/37/8 14/40/8

vt 115.969 152.911
f 14/25/2 16/27/2 20/41/2

vt -455.75 -143.837
vn -0.442891 0.896575 -0
vt 0 -36.2524
vt -455.75 -36.2524
f 16/42/9 19/43/9 20/44/9

vt 0 -143.837
f 19/43/9 16/42/9 18/45/9

