# Alias OBJ Model File
# Exported from SketchUp, (c) 2000-2012 Trimble Navigation Limited
# File units = inches

mtllib Scranton Coal Breaker 3 .mtl

g Mesh1 Model

usemtl Scranton_coal_breaker__2_
v -13.5993 5.66026 -0
vt 1 0
vn 0 0 1
v -13.5993 40.0904 -0
vt 1 0.567919
v -81.7868 66.2853 -0
vt 0 1
v -81.7868 5.66026 -0
vt 0 0
f 1/1/1 2/2/1 3/3/1 4/4/1 

usemtl Scranton_coal_breaker__2_1_
vn 1 0 -0
v -13.5993 5.66026 -125.438
v -13.5993 40.0904 -125.438
vt 1 1
f 2/3/2 1/4/2 5/1/2 6/5/2 

usemtl FrontColor
vt 13.5993 0
vn 0 -1 -0
vt 81.7868 0
v -81.7868 5.66026 -125.438
vt 81.7868 125.438
vt 13.5993 125.438
f 1/6/3 4/7/3 7/8/3 5/9/3 

vt 0 5.66026
vn -1 0 -0
vt 0 66.2853
v -81.7868 66.2853 -76.25
vt -76.25 66.2853
v -81.7868 66.2853 -125.438
vt -125.438 66.2853
vt -125.438 5.66026
f 4/10/4 3/11/4 8/12/4 9/13/4 7/14/4 

usemtl Scranton_coal_breaker__2_2_
vn 0.358609 0.933488 1.7632e-18
vt 2.67275e-18 0
vt 1 5.55112e-17
vt 0.607872 1
f 3/3/5 2/15/5 6/16/5 9/5/5 8/17/5 

usemtl FrontColor
vt 13.5993 40.0904
vn 0 0 -1
vt 13.5993 5.66026
vt 81.7868 5.66026
vt 81.7868 66.2853
f 6/18/6 5/19/6 7/20/6 9/21/6 

v -82.1764 66.2853 -0
vt 82.1764 0
v -82.1764 66.2853 -76.25
vt 82.1764 76.25
vt 81.7868 76.25
f 3/7/3 10/22/3 11/23/3 8/24/3 

usemtl Scranton_coal_breaker__2_11_
vt 0.798608 0
vt 0.803148 0
v -64.8944 66.2853 -0
v -64.8944 196.528 -0
v -150.707 196.528 -0
vt -2.22045e-16 1
v -150.707 172.438 -0
vt -2.22045e-16 0.815039
v -67.5844 172.438 -0
vt 0.968652 0.815039
v -67.5844 154.313 -0
vt 0.968652 0.675876
v -150.707 154.313 -0
vt -2.22045e-16 0.675876
v -150.707 130.019 -0
vt -2.22045e-16 0.489345
v -98.7441 111.32 -0
vt 0.605539 0.345772
v -98.7441 93.1946 -0
vt 0.605539 0.206609
v -82.1764 85.3931 -0
vt 0.798608 0.146709
f 10/25/1 3/26/1 12/1/1 13/5/1 14/27/1 15/28/1 16/29/1 17/30/1 18/31/1 19/32/1 20/33/1 21/34/1 22/35/1 

usemtl FrontColor
vt 64.8944 0
v -64.8944 66.2853 -76.25
vt 64.8944 76.25
f 12/36/3 3/7/3 8/24/3 23/37/3 

vt 82.1764 66.2853
v -82.1764 85.3931 -76.25
vt 82.1764 85.3931
v -98.7441 93.1946 -76.25
vt 98.7441 93.1946
v -98.7441 111.32 -76.25
vt 98.7441 111.32
v -150.707 130.019 -76.25
vt 150.707 130.019
v -150.707 154.313 -76.25
vt 150.707 154.313
v -67.5844 154.313 -76.25
vt 67.5844 154.313
v -67.5844 172.438 -76.25
vt 67.5844 172.438
v -150.707 172.438 -76.25
vt 150.707 172.438
v -150.707 196.528 -76.25
vt 150.707 196.528
v -64.8944 196.528 -76.25
vt 64.8944 196.528
vt 64.8944 66.2853
f 8/21/6 11/38/6 24/39/6 25/40/6 26/41/6 27/42/6 28/43/6 29/44/6 30/45/6 31/46/6 32/47/6 33/48/6 23/49/6 

usemtl Scranton_coal_breaker__2_3_
vt 0 0.744438
v -82.1764 10.6251 -0
v -82.1764 10.6251 -82.125
v -82.1764 85.3931 -82.125
vt 0.928463 1
vt 0.928463 0.744438
f 10/50/2 34/4/2 35/1/2 36/5/2 24/51/2 11/52/2 

usemtl Scranton_coal_breaker__2_10_
vt 0.868836 0.718285
vt 0.457453 0.851673
v -208.489 150.813 -0
v -208.489 10.6251 -0
vt 1 0.397041
v -86.1003 66.2853 -0
vt 0.968935 0.397041
v -86.1003 53.7892 -0
vt 0.968935 0.307903
v -146.53 12.2221 -0
vt 0.490524 0.0113922
v -148.201 11.0723 -0
vt 0.47729 0.00319007
v -168.1 11.0723 -0
vt 0.319751 0.00319007
v -168.1 32.5923 -0
vt 0.319751 0.156699
v -93.5168 80.1552 -0
vt 0.910219 0.495979
v -86.1003 77.5329 -0
vt 0.968935 0.477274
v -82.1764 66.2853 -0
v -82.1764 66.2853 -0
vt 1 0.533343
vt 0.868836 0.588993
f 20/53/1 19/54/1 37/3/1 38/4/1 34/1/1 10/55/1 39/56/1 40/57/1 41/58/1 42/59/1 43/60/1 44/61/1 45/62/1 46/63/1 47/55/1 48/55/1 22/64/1 21/65/1 

usemtl FrontColor
vt -1.35612e-15 185.83
vn 0.338604 0.940929 3.04689e-18
vt -8.88536e-16 130.604
vt 76.25 130.604
vt 76.25 185.83
f 19/66/7 20/67/7 26/68/7 27/69/7 

vt 0 111.32
vt 0 93.1946
vt 76.25 93.1946
vt 76.25 111.32
f 20/70/2 21/71/2 25/72/2 26/73/2 

vt 7.16272e-16 129.038
vn 0.426018 0.904715 -3.09025e-18
vt 5.96093e-16 110.725
vt 76.25 110.725
vt 76.25 129.038
f 21/74/8 22/75/8 24/76/8 25/77/8 

vt 0 85.3931
vt 76.25 66.2853
vt 76.25 85.3931
f 22/78/2 10/11/2 11/79/2 24/80/2 

v -98.7441 93.1946 -82.125
vt 82.125 129.038
vn 0.426018 0.904715 5.91077e-19
vt 82.125 110.725
f 49/81/9 25/77/9 24/76/9 36/82/9 

v -98.7441 111.32 -82.125
vt 82.125 111.32
vt 82.125 93.1946
f 50/83/2 26/73/2 25/72/2 49/84/2 

usemtl Scranton_coal_breaker__2_4_
vn 0.338604 0.940929 4.81138e-17
vt 9.99755e-17 0.473488
vt 0.928463 0.473488
vt 0.928463 0
v -208.489 150.813 -82.125
f 37/3/10 19/85/10 27/86/10 26/87/10 50/1/10 51/5/10 

usemtl FrontColor
vt 0 130.019
vt 0 154.313
v -150.707 154.313 -6.5625
vt -6.5625 154.313
vt -76.25 154.313
vt -76.25 130.019
f 19/88/4 18/89/4 52/90/4 28/91/4 27/92/4 

vt 67.5844 -8.70536e-30
vn -3.41926e-16 -1 5.64135e-32
vt 150.707 -8.70536e-30
vt 150.707 6.5625
v -67.5844 154.313 -6.5625
vt 67.5844 6.5625
f 17/93/11 18/94/11 52/95/11 53/96/11 

usemtl Scranton_coal_breaker__2_12_
vt 0 1.77636e-15
f 16/5/1 15/3/1 18/97/1 17/1/1 

usemtl FrontColor
v -67.5844 172.438 -6.5625
vt -67.5844 6.5625
vn 3.41926e-16 1 5.64135e-32
v -150.707 172.438 -6.5625
vt -150.707 6.5625
vt -150.707 9.72786e-30
vt -67.5844 9.72786e-30
f 54/98/12 55/99/12 15/100/12 16/101/12 

v -153.459 154.313 -6.5625
vt 153.459 154.313
v -153.459 172.438 -6.5625
vt 153.459 172.438
f 54/45/6 53/44/6 52/43/6 56/102/6 57/103/6 55/46/6 

vt 0 172.438
vt -6.5625 172.438
f 17/89/4 16/104/4 54/105/4 53/90/4 

vt -76.25 172.438
f 29/91/4 53/90/4 54/105/4 30/106/4 

vt -150.707 76.25
vn 3.41926e-16 1 -1.50084e-33
vt -67.5844 76.25
f 28/107/13 52/99/13 53/98/13 29/108/13 

vt 67.5844 76.25
vn -3.41926e-16 -1 -1.50084e-33
vt 150.707 76.25
f 30/109/14 54/96/14 55/95/14 31/110/14 

vt 0 196.528
vt -76.25 196.528
f 15/104/4 14/111/4 32/112/4 31/106/4 55/105/4 

vt -150.707 0
vn 0 1 -0
vt -64.8944 0
vt -64.8944 76.25
f 14/113/15 13/114/15 33/115/15 32/107/15 

usemtl Scranton_coal_breaker__2_22_
v -64.8944 210.966 -38.125
vn 3.62139e-18 -0.93519 -0.354146
vt 0.99782 0
v -150.894 196.528 -0
v -150.894 210.966 -38.125
f 58/3/16 13/4/16 14/116/16 59/1/16 60/5/16 

usemtl FrontColor
vt -150.894 0
v -150.894 196.528 -76.25
vt -150.894 76.25
f 59/117/15 14/113/15 32/107/15 61/118/15 

usemtl Scranton_coal_breaker__2_21_
vn -3.08423e-18 -0.93519 0.354146
vt 0.00218023 0
f 33/1/17 58/5/17 60/3/17 61/4/17 32/119/17 

usemtl FrontColor
vt 76.25 196.528
vt 38.125 210.966
f 59/111/2 61/120/2 60/121/2

usemtl Scranton_coal_breaker__2_19_
f 13/3/2 12/4/2 23/1/2 33/5/2 

usemtl FrontColor
v -153.459 172.438 -0
vt -153.459 0
vn -1.03258e-14 1 -0
vt -153.459 6.5625
f 62/122/18 15/113/18 55/99/18 57/123/18 

usemtl Scranton_coal_breaker__2_9_
v -153.459 154.313 -0
vt 1 1.77636e-15
f 63/4/1 18/124/1 15/5/1 62/3/1 

usemtl Scranton_coal_breaker__2_20_
vn 1.03258e-14 -1 -0
vt 7.10543e-15 1
vt 7.10543e-15 0
f 56/5/19 52/125/19 18/126/19 63/1/19 

usemtl FrontColor
f 63/89/4 62/104/4 57/105/4 56/90/4 

vt 208.489 150.813
f 49/40/6 51/127/6 50/41/6

v -93.5168 80.1552 -82.125
vt 93.5168 80.1552
f 64/128/6 51/127/6 49/40/6

v -168.1 32.5923 -82.125
vt 168.1 32.5923
f 65/129/6 51/127/6 64/128/6

v -168.1 11.0723 -82.125
vt 168.1 11.0723
f 66/130/6 51/127/6 65/129/6

v -208.489 10.6251 -82.125
vt 208.489 10.6251
f 66/130/6 67/131/6 51/127/6

vt 82.1764 10.6251
f 67/131/6 66/130/6 35/132/6

v -148.201 11.0723 -82.125
vt 148.201 11.0723
f 68/133/6 35/132/6 66/130/6

v -86.1003 53.7892 -82.125
vt 86.1003 53.7892
f 69/134/6 35/132/6 68/133/6

f 35/132/6 69/134/6 36/39/6

v -86.1003 77.5329 -82.125
vt 86.1003 77.5329
f 36/39/6 69/134/6 70/135/6

v -86.1003 77.5329 -9.375
vt -9.375 77.5329
vt -82.125 77.5329
vt -82.125 53.7892
v -86.1003 53.7892 -9.375
vt -9.375 53.7892
f 71/136/4 70/137/4 69/138/4 72/139/4 

vt -82.125 107.021
vn -0.333345 -0.942805 7.86803e-19
vt -9.375 107.021
v -93.5168 80.1552 -9.375
vt -9.375 114.887
vt -82.125 114.887
f 70/140/20 71/141/20 73/142/20 64/143/20 

v -93.5168 53.7892 -9.375
vt 93.5168 53.7892
v -146.53 19.2898 -9.375
vt 146.53 19.2898
v -146.53 12.2221 -9.375
vt 146.53 12.2221
v -148.201 11.0723 -9.375
v -168.1 11.0723 -9.375
v -168.1 32.5923 -9.375
f 71/135/6 72/134/6 74/144/6 75/145/6 76/146/6 77/133/6 78/130/6 79/129/6 73/128/6 

vt 0 77.5329
vt 0 53.7892
f 39/11/4 46/147/4 71/136/4 72/139/4 40/148/4 

usemtl Scranton_coal_breaker__2_6_
vt 1 0.618343
vt 1 0.799228
vt 1 0.962042
vt 0.909555 1
vt 0 0.31151
vt 0.242672 0
vt 0.263058 0.0166444
v -146.53 19.2898 -0
vt 0.263058 0.118952
v -93.5168 53.7892 -0
vt 0.909555 0.618343
f 40/149/1 39/150/1 46/151/1 45/152/1 44/153/1 43/4/1 42/154/1 41/155/1 80/156/1 81/157/1 

usemtl FrontColor
vt 1.74017e-15 107.021
vn -0.333345 -0.942805 -6.73722e-18
vt 1.89007e-15 114.887
f 46/158/21 45/159/21 73/142/21 71/141/21 

vt -2.80059e-15 -35.7501
vn 0.537685 -0.843146 1.61023e-17
vt -5.03418e-15 -124.209
vt 9.375 -124.209
vt 9.375 -35.7501
f 45/160/22 44/161/22 79/162/22 73/163/22 

vt 0 32.5923
vt 0 11.0723
vt 9.375 11.0723
vt 9.375 32.5923
f 44/164/2 43/165/2 78/166/2 79/167/2 

vt -168.1 0
vt -148.201 0
vt -148.201 9.375
vt -168.1 9.375
f 43/168/15 42/169/15 77/170/15 78/171/15 

vt -5.44311e-16 -115.828
vn -0.566732 0.823902 2.08148e-18
vt -5.38171e-16 -113.799
vt -9.375 -113.799
vt -9.375 -115.828
f 42/172/23 41/173/23 76/174/23 77/175/23 

vt 0 12.2221
vt 0 19.2898
vt -9.375 19.2898
vt -9.375 12.2221
f 41/176/4 80/177/4 75/178/4 76/179/4 

usemtl Scranton_coal_breaker__2_5_
vt 0 0.170031
vt 0.877269 1
f 80/180/1 41/4/1 40/5/1 81/181/1 

usemtl FrontColor
vt -93.5168 0
vt -86.1003 0
vt -86.1003 9.375
vt -93.5168 9.375
f 81/182/15 40/183/15 72/184/15 74/185/15 

vt -86.1003 82.125
v -93.5168 53.7892 -82.125
vt -93.5168 82.125
f 72/184/15 69/186/15 82/187/15 74/185/15 

v -146.53 19.2898 -82.125
f 69/134/6 83/145/6 82/144/6

v -146.53 12.2221 -82.125
f 69/134/6 84/146/6 83/145/6

f 69/134/6 68/133/6 84/146/6

vn -0.566732 0.823902 1.44517e-19
vt -82.125 -113.799
vt -82.125 -115.828
f 76/174/24 84/188/24 68/189/24 77/175/24 

vt -82.125 19.2898
vt -82.125 12.2221
f 75/178/4 83/190/4 84/191/4 76/179/4 

vt -82.125 -112.292
vn -0.545445 0.838146 -8.61463e-18
vt -9.375 -112.292
vt -9.375 -49.0417
vt -82.125 -49.0417
f 83/192/25 75/193/25 74/194/25 82/195/25 

vt 2.50997e-15 -112.292
vn -0.545445 0.838146 -9.34316e-18
vt 1.60189e-15 -49.0417
f 80/196/26 81/197/26 74/194/26 75/193/26 

vt -168.1 82.125
vt -148.201 82.125
f 66/198/15 78/171/15 77/170/15 68/199/15 

vt 82.125 32.5923
vt 82.125 11.0723
f 65/200/2 79/167/2 78/166/2 66/201/2 

vt 82.125 -35.7501
vn 0.537685 -0.843146 -3.2266e-17
vt 82.125 -124.209
f 64/202/27 73/163/27 79/162/27 65/203/27 

f 36/39/6 70/135/6 64/128/6

f 64/128/6 49/40/6 36/39/6

vt 208.489 0
vt 208.489 82.125
vt 82.1764 82.125
f 34/22/3 38/204/3 67/205/3 35/206/3 

vt 0 10.6251
vt 0 150.813
vt -82.125 150.813
vt -82.125 10.6251
f 38/207/4 37/208/4 51/209/4 67/210/4 

g Mesh2 Model

usemtl Scranton_coal_breaker__2_7_
v -90.1205 107.823 -1.48303e-15
vn 0.191051 -5.33352e-16 0.98158
v -90.1205 124.106 -1.02837e-15
vt 1 0.306576
v -174.475 160.936 16.4185
v -174.475 144.163 16.4185
vt 0 0.684199
f 85/1/28 86/211/28 87/3/28 88/212/28 

usemtl FrontColor
vt 17.2177 124.106
vn 0.98158 5.33463e-18 -0.191051
vt 17.2177 107.823
v -109.369 107.823 -98.8942
vt 117.968 107.823
v -109.369 124.106 -98.8942
vt 117.968 124.106
f 86/213/29 85/214/29 89/215/29 90/216/29 

vt -17.2177 123.469
vn -0.382295 -0.92104 0.0744086
vt -17.2177 216.774
v -193.723 144.163 -82.4757
vt -117.968 216.774
vt -117.968 123.469
f 85/217/30 88/218/30 91/219/30 89/220/30 

vt -17.2177 144.163
vn -0.98158 0 0.191051
vt -17.2177 160.936
v -193.723 160.936 -82.4757
vt -117.968 160.936
vt -117.968 144.163
f 88/221/31 87/222/31 92/223/31 91/224/31 

usemtl Scranton_coal_breaker__2_8_
vn 0.386654 0.919149 -0.0752571
vt 1.27676e-15 0
vt 1 2.22045e-15
f 87/3/32 86/225/32 90/226/32 92/5/32 

usemtl FrontColor
vt 88.4605 124.106
vn -0.191051 5.33352e-16 -0.98158
vt 88.4605 107.823
vt 174.398 144.163
vt 174.398 160.936
f 90/227/33 89/228/33 91/229/33 92/230/33 

g Mesh3 Model

usemtl Scranton_coal_breaker__2_13_
v -43.7412 129.546 -0
v -43.7412 152.74 -0
vt 1 0.756917
v -62.6787 160.188 -0
v -62.6787 129.546 -0
f 93/1/1 94/231/1 95/3/1 96/4/1 

usemtl Scranton_coal_breaker__2_14_
v -43.7412 129.546 -30.5
v -43.7412 152.74 -30.5
f 94/3/2 93/4/2 97/1/2 98/5/2 

usemtl Scranton_coal_breaker__2_15_
v -62.6787 129.546 -30.5
f 93/4/3 96/1/3 99/5/3 97/3/3 

usemtl FrontColor
vt 0 129.546
vt 0 160.188
v -62.6787 160.188 -30.5
vt -30.5 160.188
vt -30.5 129.546
f 96/232/4 95/233/4 100/234/4 99/235/4 

vt 0 116.961
vn 0.366022 0.930606 -0
vt 0 96.6118
vt 30.5 96.6118
vt 30.5 116.961
f 95/236/34 94/237/34 98/238/34 100/239/34 

vt 43.7412 152.74
vt 43.7412 129.546
vt 62.6787 129.546
vt 62.6787 160.188
f 98/240/6 97/241/6 99/242/6 100/243/6 

g Mesh4 Model

usemtl Scranton_coal_breaker__2_16_
v -28.8047 160.629 -0
v -28.8047 177.86 -0
vt 1 0.806135
v -44.1172 182.004 -0
vt -4.44089e-16 1
v -44.1172 160.629 -0
vt -4.44089e-16 0
f 101/1/1 102/244/1 103/245/1 104/246/1 

usemtl Scranton_coal_breaker__2_17_
v -28.8047 160.629 -13.3125
v -28.8047 177.86 -13.3125
f 102/3/2 101/4/2 105/1/2 106/5/2 

usemtl Scranton_coal_breaker__2_18_
v -44.1172 160.629 -13.3125
f 101/4/3 104/1/3 107/5/3 105/3/3 

usemtl FrontColor
vt 0 160.629
vt 0 182.004
v -44.1172 182.004 -13.3125
vt -13.3125 182.004
vt -13.3125 160.629
f 104/247/4 103/248/4 108/249/4 107/250/4 

vt 0 90.129
vn 0.261223 0.965279 -0
vt 0 74.2657
vt 13.3125 74.2657
vt 13.3125 90.129
f 103/251/35 102/252/35 106/253/35 108/254/35 

vt 28.8047 177.86
vt 28.8047 160.629
vt 44.1172 160.629
vt 44.1172 182.004
f 106/255/6 105/256/6 107/257/6 108/258/6 

